<svg  xmlns="http://www.w3.org/2000/svg" xmlns:xlink="http://www.w3.org/1999/xlink">
	<symbol id="arrow_down" viewBox="0 0 44 44">
		<path d="M434.252,185.721l-21.409-21.413c-7.419-7.042-16.084-10.564-25.975-10.564c-10.095,0-18.657,3.521-25.7,10.564
			l-83.938,83.939V47.255c0-9.9-3.621-18.464-10.855-25.697c-7.234-7.232-15.797-10.85-25.693-10.85h-36.545
			c-9.897,0-18.464,3.621-25.693,10.85c-7.236,7.233-10.85,15.797-10.85,25.697v200.992l-83.939-83.939
			c-7.042-7.042-15.606-10.564-25.697-10.564c-9.896,0-18.559,3.521-25.979,10.564l-21.128,21.413C3.615,192.948,0,201.615,0,211.7
			c0,10.282,3.619,18.848,10.848,25.698l185.864,186.146c7.045,7.046,15.609,10.567,25.697,10.567
			c9.897,0,18.558-3.521,25.977-10.567l185.865-186.146c7.043-7.043,10.567-15.608,10.567-25.698
			C444.819,201.805,441.295,193.145,434.252,185.721z"/>
	</symbol>
	<symbol id="correct" viewBox="0 0 512 512">
		<path d="m369.164062 174.769531c7.8125 7.8125 7.8125 20.476563 0 28.285157l-134.171874 134.175781c-7.8125 7.808593-20.472657 7.808593-28.285157 0l-63.871093-63.875c-7.8125-7.808594-7.8125-20.472657 0-28.28125 7.808593-7.8125 20.472656-7.8125 28.28125 0l49.730468 49.730469 120.03125-120.035157c7.8125-7.808593 20.476563-7.808593 28.285156 0zm142.835938 81.230469c0 141.503906-114.515625 256-256 256-141.503906 0-256-114.515625-256-256 0-141.503906 114.515625-256 256-256 141.503906 0 256 114.515625 256 256zm-40 0c0-119.394531-96.621094-216-216-216-119.394531 0-216 96.621094-216 216 0 119.394531 96.621094 216 216 216 119.394531 0 216-96.621094 216-216zm0 0"/>
	</symbol>
	<symbol id="exclamation" viewBox="0 0 512 512">
			<path d="M256,0C114.497,0,0,114.507,0,256c0,141.503,114.507,256,256,256c141.503,0,256-114.507,256-256
			C512,114.497,397.493,0,256,0z M256,472c-119.393,0-216-96.615-216-216c0-119.393,96.615-216,216-216
			c119.393,0,216,96.615,216,216C472,375.393,375.385,472,256,472z"/>
			<path d="M256,128.877c-11.046,0-20,8.954-20,20V277.67c0,11.046,8.954,20,20,20s20-8.954,20-20V148.877
			C276,137.831,267.046,128.877,256,128.877z"/>
			<circle cx="256" cy="349.16" r="27"/>
	</symbol>
	
</svg>
