<svg  xmlns="http://www.w3.org/2000/svg" xmlns:xlink="http://www.w3.org/1999/xlink">
	<symbol id="arrow_down" viewBox="0 0 444.819 444.819">
		<path d="M434.252,185.721l-21.409-21.413c-7.419-7.042-16.084-10.564-25.975-10.564c-10.095,0-18.657,3.521-25.7,10.564
			l-83.938,83.939V47.255c0-9.9-3.621-18.464-10.855-25.697c-7.234-7.232-15.797-10.85-25.693-10.85h-36.545
			c-9.897,0-18.464,3.621-25.693,10.85c-7.236,7.233-10.85,15.797-10.85,25.697v200.992l-83.939-83.939
			c-7.042-7.042-15.606-10.564-25.697-10.564c-9.896,0-18.559,3.521-25.979,10.564l-21.128,21.413C3.615,192.948,0,201.615,0,211.7
			c0,10.282,3.619,18.848,10.848,25.698l185.864,186.146c7.045,7.046,15.609,10.567,25.697,10.567
			c9.897,0,18.558-3.521,25.977-10.567l185.865-186.146c7.043-7.043,10.567-15.608,10.567-25.698
			C444.819,201.805,441.295,193.145,434.252,185.721z"/>
	</symbol>
	<symbol id="correct" viewBox="0 0 512 512">
		<path d="m369.164062 174.769531c7.8125 7.8125 7.8125 20.476563 0 28.285157l-134.171874 134.175781c-7.8125 7.808593-20.472657 7.808593-28.285157 0l-63.871093-63.875c-7.8125-7.808594-7.8125-20.472657 0-28.28125 7.808593-7.8125 20.472656-7.8125 28.28125 0l49.730468 49.730469 120.03125-120.035157c7.8125-7.808593 20.476563-7.808593 28.285156 0zm142.835938 81.230469c0 141.503906-114.515625 256-256 256-141.503906 0-256-114.515625-256-256 0-141.503906 114.515625-256 256-256 141.503906 0 256 114.515625 256 256zm-40 0c0-119.394531-96.621094-216-216-216-119.394531 0-216 96.621094-216 216 0 119.394531 96.621094 216 216 216 119.394531 0 216-96.621094 216-216zm0 0"/>
	</symbol>
	<symbol id="exclamation" viewBox="0 0 512 512">
			<path d="M256,0C114.497,0,0,114.507,0,256c0,141.503,114.507,256,256,256c141.503,0,256-114.507,256-256
			C512,114.497,397.493,0,256,0z M256,472c-119.393,0-216-96.615-216-216c0-119.393,96.615-216,216-216
			c119.393,0,216,96.615,216,216C472,375.393,375.385,472,256,472z"/>
			<path d="M256,128.877c-11.046,0-20,8.954-20,20V277.67c0,11.046,8.954,20,20,20s20-8.954,20-20V148.877
			C276,137.831,267.046,128.877,256,128.877z"/>
			<circle cx="256" cy="349.16" r="27"/>
	</symbol>
	<symbol id="close" viewBox="0 0 348.333 348.334">
		<path d="M336.559,68.611L231.016,174.165l105.543,105.549c15.699,15.705,15.699,41.145,0,56.85
			c-7.844,7.844-18.128,11.769-28.407,11.769c-10.296,0-20.581-3.919-28.419-11.769L174.167,231.003L68.609,336.563
			c-7.843,7.844-18.128,11.769-28.416,11.769c-10.285,0-20.563-3.919-28.413-11.769c-15.699-15.698-15.699-41.139,0-56.85
			l105.54-105.549L11.774,68.611c-15.699-15.699-15.699-41.145,0-56.844c15.696-15.687,41.127-15.687,56.829,0l105.563,105.554
			L279.721,11.767c15.705-15.687,41.139-15.687,56.832,0C352.258,27.466,352.258,52.912,336.559,68.611z"/>
	</symbol>
	<symbol id="check-box-empty" viewBox="0 0 401.998 401.998">
		<path d="M377.87,24.126C361.786,8.042,342.417,0,319.769,0H82.227C59.579,0,40.211,8.042,24.125,24.126
			C8.044,40.212,0.002,59.576,0.002,82.228v237.543c0,22.647,8.042,42.014,24.123,58.101c16.086,16.085,35.454,24.127,58.102,24.127
			h237.542c22.648,0,42.011-8.042,58.102-24.127c16.085-16.087,24.126-35.453,24.126-58.101V82.228
			C401.993,59.58,393.951,40.212,377.87,24.126z M365.448,319.771c0,12.559-4.47,23.314-13.415,32.264
			c-8.945,8.945-19.698,13.411-32.265,13.411H82.227c-12.563,0-23.317-4.466-32.264-13.411c-8.945-8.949-13.418-19.705-13.418-32.264
			V82.228c0-12.562,4.473-23.316,13.418-32.264c8.947-8.946,19.701-13.418,32.264-13.418h237.542
			c12.566,0,23.319,4.473,32.265,13.418c8.945,8.947,13.415,19.701,13.415,32.264V319.771L365.448,319.771z"/>
	</symbol>
	<symbol id="check-box" viewBox="0 0 360 360">
		<path d="M303.118,0H56.882C25.516,0,0,25.516,0,56.882v246.236C0,334.484,25.516,360,56.882,360h246.236
			C334.484,360,360,334.484,360,303.118V56.882C360,25.516,334.484,0,303.118,0z M322.078,303.118c0,10.454-8.506,18.96-18.959,18.96
			H56.882c-10.454,0-18.959-8.506-18.959-18.96V56.882c0-10.454,8.506-18.959,18.959-18.959h246.236
			c10.454,0,18.959,8.506,18.959,18.959V303.118z"/>
		<path d="M249.844,106.585c-6.116,0-11.864,2.383-16.19,6.71l-84.719,84.857l-22.58-22.578c-4.323-4.324-10.071-6.706-16.185-6.706
			c-6.115,0-11.863,2.382-16.187,6.705c-4.323,4.323-6.703,10.071-6.703,16.185c0,6.114,2.38,11.862,6.703,16.184l38.77,38.77
			c4.323,4.324,10.071,6.706,16.186,6.706c6.112,0,11.862-2.383,16.19-6.71L266.03,145.662c8.923-8.926,8.922-23.448,0-32.374
			C261.707,108.966,255.958,106.585,249.844,106.585z"/>
	</symbol>
</svg>
